<?xml version="1.0" encoding="utf-8"?>
<!-- Generator: Adobe Illustrator 22.1.0, SVG Export Plug-In . SVG Version: 6.00 Build 0)  -->
<svg version="1.1" id="圖層_1" xmlns="http://www.w3.org/2000/svg" xmlns:xlink="http://www.w3.org/1999/xlink" x="0px" y="0px"
	 viewBox="0 0 182 33" style="enable-background:new 0 0 182 33;" xml:space="preserve">
<style type="text/css">
	.st0{fill:#231815;}
	.st1{fill:url(#SVGID_1_);}
	.st2{fill:url(#SVGID_2_);}
	.st3{fill:#008F43;}
</style>
<g>
	<g>
		<g>
			<path class="st0" d="M73.8,27.8c0-1.8,0.7-3.5,3.2-3.5c0.6,0,1.2,0.1,1.6,0.2l-0.2,0.9c-0.4-0.2-0.9-0.2-1.3-0.2
				c-1.5,0-2.1,1.1-2.1,2.6c0,1.5,0.7,2.4,2.1,2.4c0.5,0,1.1-0.1,1.4-0.2l0.1,1c-0.4,0.1-1,0.2-1.6,0.2
				C74.5,31.1,73.8,29.5,73.8,27.8L73.8,27.8z M83.6,30.9l-0.9,0.2c-0.2-0.2-0.3-0.5-0.3-0.8c-0.3,0.5-0.9,0.8-1.5,0.8
				c-0.8,0-1.6-0.4-1.6-1.5c0-1.2,0.6-1.6,3-1.7v-0.3c0-0.5-0.1-0.8-0.9-0.8c-0.5,0-1,0.1-1.5,0.4l-0.2-0.9c0.5-0.2,1.2-0.4,1.8-0.4
				c1.3,0,1.7,0.5,1.7,1.7v1.9C83.3,30.1,83.4,30.6,83.6,30.9z M80.3,29.5c0,0.6,0.5,0.7,0.8,0.7c0.6,0,1.1-0.4,1.2-0.9v-0.7
				C80.7,28.7,80.3,28.8,80.3,29.5z M86.7,30.2V31l-0.5,0c-0.8,0-1.4-0.3-1.4-1.2v-3h-0.8v-0.8h0.8v-1.1l1-0.3v1.4h1v0.8h-1v2.6
				c0,0.6,0.1,0.8,0.6,0.8H86.7z M90.3,25.9c1.3,0,1.6,0.8,1.6,1.7V31h-1v-3.1c0-0.6-0.2-1.1-0.9-1.1c-0.5,0-1,0.2-1.2,0.5V31h-1
				v-6.8l1-0.2v2.5C89.1,26.2,89.7,25.9,90.3,25.9z M97.2,30.9l-0.9,0.2c-0.2-0.2-0.3-0.5-0.3-0.8c-0.3,0.5-0.9,0.8-1.5,0.8
				c-0.8,0-1.6-0.4-1.6-1.5c0-1.2,0.6-1.6,3-1.7v-0.3c0-0.5-0.1-0.8-0.9-0.8c-0.5,0-1,0.1-1.5,0.4l-0.2-0.9c0.5-0.2,1.2-0.4,1.8-0.4
				c1.3,0,1.7,0.5,1.7,1.7v1.9C96.8,30.1,97,30.6,97.2,30.9z M93.9,29.5c0,0.6,0.5,0.7,0.8,0.7c0.6,0,1.1-0.4,1.2-0.9v-0.7
				C94.3,28.7,93.9,28.8,93.9,29.5z M101,26h1.1c-0.4,1.2-1.2,3.5-1.7,4.8c-0.4,1.1-0.8,1.8-1.2,2.2l-1-0.4c0.4-0.4,0.8-1,1.2-1.9
				L97.5,26h1.1l1.3,3.5C100.3,28.5,100.7,27,101,26z"/>
			<path class="st0" d="M106.5,30.1h2.7V31h-3.7v-6.6h1V30.1z M111.1,25.3H110v-0.9h1.1V25.3z M111.1,31h-1v-5h1V31z M111.9,26.9
				v-0.8h0.8v-0.2c0-0.8,0.3-1.8,1.7-1.8c0.3,0,0.7,0,0.9,0.1l-0.1,0.8c-0.2-0.1-0.5-0.1-0.6-0.1c-0.6,0-0.8,0.3-0.8,1v0.2h1.1v0.8
				h-1.1V31h-1v-4.1H111.9z M117.9,30.2c0.5,0,1-0.1,1.4-0.3l0.2,0.8c-0.3,0.2-1,0.3-1.7,0.3c-1.8,0-2.5-1.1-2.5-2.6
				c0-1.5,0.8-2.7,2.4-2.7c1.4,0,1.9,0.9,1.9,2.2v0.6h-3.3C116.4,29.7,117,30.2,117.9,30.2L117.9,30.2z M117.6,26.6
				c-0.7,0-1.2,0.6-1.2,1.3h2.3C118.7,27.1,118.4,26.6,117.6,26.6L117.6,26.6z"/>
			<path class="st0" d="M124.4,31h-1.1v-6.6h1.1V31z M126.7,25.9c0.1,0.2,0.1,0.5,0.2,0.6c0.3-0.4,1-0.7,1.6-0.7
				c1.3,0,1.6,0.8,1.6,1.7V31h-1v-3.1c0-0.6-0.2-1.1-0.9-1.1c-0.5,0-1,0.2-1.2,0.5V31h-1v-3.9c0-0.3,0-0.7-0.1-1L126.7,25.9z
				 M134,26.9c-0.3-0.1-0.7-0.2-1.1-0.2c-0.3,0-0.7,0.1-0.7,0.6c0,0.3,0.2,0.5,0.9,0.8c0.7,0.3,1.3,0.7,1.3,1.5
				c0,1.2-0.9,1.5-1.6,1.5c-0.5,0-1.3-0.1-1.7-0.3l0.2-0.9c0.4,0.2,1,0.3,1.4,0.3c0.4,0,0.7-0.1,0.7-0.6c0-0.4-0.3-0.6-1-0.9
				c-0.7-0.3-1.1-0.6-1.1-1.4c0-1.2,1-1.4,1.7-1.4c0.4,0,1,0.1,1.3,0.2L134,26.9z M136.9,31.1c-1.3,0-1.6-0.8-1.6-1.7V26h1v3.1
				c0,0.6,0.2,1.1,0.9,1.1c0.5,0,1-0.2,1.2-0.5V26h1v3.5c0,0.5,0,1,0.1,1.4l-1,0.1c-0.1-0.2-0.1-0.4-0.2-0.6
				C138.2,30.8,137.6,31.1,136.9,31.1z M143.5,25.9l-0.1,0.9c-0.6,0-1.2,0.2-1.5,0.7V31h-1v-3.7c0-0.5,0-0.9-0.1-1.2l0.9-0.1
				c0.1,0.2,0.2,0.5,0.2,0.8C142.1,26.3,142.8,25.9,143.5,25.9z M148.1,30.9l-0.9,0.2c-0.2-0.2-0.3-0.5-0.3-0.8
				c-0.3,0.5-0.9,0.8-1.5,0.8c-0.8,0-1.6-0.4-1.6-1.5c0-1.2,0.6-1.6,3-1.7v-0.3c0-0.5-0.1-0.8-0.9-0.8c-0.5,0-1,0.1-1.5,0.4
				l-0.2-0.9c0.5-0.2,1.2-0.4,1.8-0.4c1.3,0,1.7,0.5,1.7,1.7v1.9C147.8,30.1,147.9,30.6,148.1,30.9z M144.8,29.5
				c0,0.6,0.5,0.7,0.8,0.7c0.6,0,1.1-0.4,1.2-0.9v-0.7C145.3,28.7,144.8,28.8,144.8,29.5z M150,25.9c0.1,0.2,0.1,0.5,0.2,0.6
				c0.3-0.4,1-0.7,1.6-0.7c1.3,0,1.6,0.8,1.6,1.7V31h-1v-3.1c0-0.6-0.2-1.1-0.9-1.1c-0.5,0-1,0.2-1.2,0.5V31h-1v-3.9
				c0-0.3,0-0.7-0.1-1L150,25.9z M154.4,28.5c0-1.4,0.5-2.7,2.5-2.7c0.5,0,0.9,0.1,1.2,0.2l-0.2,0.9c-0.3-0.1-0.7-0.2-1-0.2
				c-1,0-1.4,0.8-1.4,1.8c0,1,0.4,1.7,1.5,1.7c0.3,0,0.7-0.1,1-0.2l0.1,0.9c-0.2,0.1-0.7,0.2-1.2,0.2
				C155,31.1,154.4,29.9,154.4,28.5L154.4,28.5z M161.2,30.2c0.5,0,1.1-0.1,1.4-0.3l0.2,0.8c-0.3,0.2-1,0.3-1.7,0.3
				c-1.8,0-2.5-1.1-2.5-2.6c0-1.5,0.8-2.7,2.4-2.7c1.4,0,1.9,0.9,1.9,2.2v0.6h-3.3C159.6,29.7,160.2,30.2,161.2,30.2L161.2,30.2z
				 M160.9,26.6c-0.7,0-1.2,0.6-1.2,1.3h2.3C162,27.1,161.7,26.6,160.9,26.6L160.9,26.6z"/>
		</g>
		<g>
			<g>
				<g>
					<path class="st0" d="M77.8,11.3l4.4,0c0.5,0,1-0.4,1-1l0-2.7c0-0.5-0.4-1-1-1h-4.4c-0.5,0-1,0.4-1,1l0,2.7
						C76.8,10.9,77.2,11.3,77.8,11.3z M78.9,7.6h2.1l0,2.7h-2.1L78.9,7.6z M90.4,1.7H74.8c-0.5,0-1,0.4-1,1v14c0,0.5,0.4,1,1,1h15.6
						c0.5,0,1-0.4,1-1v-14C91.4,2.1,90.9,1.7,90.4,1.7z M85.2,2.8h1.3c0.1,0.4,0.2,0.9,0.3,1.6h-1.6C85.2,3.7,85.2,3.1,85.2,2.8z
						 M76,2.8h7.5c0,0.3,0,0.9,0.1,1.6H76L76,2.8z M89.2,16.4H76l0-10.8h7.8c0.2,1.8,0.7,4,1.6,6.2c-0.8,1.2-1.8,2.2-2.9,3
						c-0.1,0.1,0,0.2,0,0.2l0.4,0.7c0,0,0.1,0.1,0.2,0.1c1.2-0.7,2.1-1.6,3-2.6c0.6,1,1.3,2,2.1,2.8c0.1,0.1,0.2,0,0.2,0l0.5-0.6
						c0,0,0.1-0.1,0-0.1c-0.8-1-1.5-2.1-1.9-3.2c0.6-0.9,1.1-1.8,1.6-2.7C88.6,9,88.4,9,88.4,9l-1.1-0.5c0,0-0.1-0.1-0.2,0.1
						c-0.2,0.6-0.5,1.1-0.8,1.7c-0.5-1.7-0.8-3.3-1-4.7h2.8c0,0,0.4,0,0.4-0.5c-0.2-0.9-0.3-1.8-0.4-2.3h1L89.2,16.4z M83.2,13.1
						v-0.8c0-0.1-0.1-0.1-0.1-0.1c-2.2,0.6-4.8,0.9-6,0.9h0c-0.1,0-0.2,0.1-0.2,0.2v1.3c0,0.1,0.1,0.2,0.2,0.2l0,0h0c0,0,0,0,0,0
						c1.4-0.1,4.3-0.7,6.1-1.5C83.1,13.2,83.2,13.2,83.2,13.1z"/>
				</g>
			</g>
			<path class="st0" d="M155.5,5.8h-15.4c-0.1,0-0.2,0.1-0.2,0.2v0.7c0,0.1,0.1,0.2,0.2,0.2h14.7l-0.4,1.5c0,0.1,0.1,0.2,0.2,0.2
				h1.1c0.2,0,0.2-0.1,0.2-0.2c0,0,0.4-1.2,0.5-1.7C156.6,6.4,156.5,5.8,155.5,5.8z M145.8,12.8h-4.4c-0.5,0-1,0.4-1,1v2.1
				c0,0.5,0.4,1,1,1h4.4c0.5,0,1-0.4,1-1v-2.1C146.8,13.2,146.4,12.8,145.8,12.8z M144.7,15.7h-2.1v-2h2.1V15.7z M140.1,3.4h6.4
				l0,0.6h-5c-0.1,0-0.2,0.1-0.2,0.2V5c0,0.1,0.1,0.2,0.2,0.2h12.4c0.1,0,0.2-0.1,0.2-0.2V4.2c0-0.1-0.1-0.2-0.2-0.2h-5V3.4h6.4
				c0.1,0,0.2-0.1,0.2-0.2V2.5c0-0.1-0.1-0.2-0.2-0.2h-6.4V1.7c0-0.1-0.1-0.2-0.2-0.2h-1.8c-0.1,0-0.2,0.1-0.2,0.2v0.6h-6.4
				c-0.1,0-0.2,0.1-0.2,0.2v0.8C140,3.3,140,3.4,140.1,3.4z M140.7,9.2c-0.1,0-0.2,0.1-0.2,0.2v0.8c0,0.1,0.1,0.2,0.2,0.2h14
				c0.1,0,0.2-0.1,0.2-0.2V9.4c0-0.1-0.1-0.2-0.2-0.2h-5.9V8.6h5c0.1,0,0.2-0.1,0.2-0.2V7.7c0-0.1-0.1-0.2-0.2-0.2h-12.4
				c-0.1,0-0.2,0.1-0.2,0.2v0.8c0,0.1,0.1,0.2,0.2,0.2h5v0.6H140.7z M156.2,11h-17.1c-0.1,0-0.2,0.1-0.2,0.2v0.8
				c0,0.1,0.1,0.2,0.2,0.2h12.7v0.6h-4.2c-0.1,0-0.2,0.1-0.2,0.2v0.8c0,0.1,0.1,0.2,0.2,0.2h1.3l0.2,1.7c0,0.1,0.1,0.2,0.2,0.2h1.3
				c0.1,0,0.1,0,0.1-0.1v0l-0.5-1.7h1.6v1.8c0,0.5-0.1,0.7-0.9,0.7h-0.5c-0.1,0-0.1,0-0.1,0.1v0.9c0,0.2,0.1,0.3,0.3,0.3l0.8,0
				c1.9,0,2.5-0.3,2.5-1.9v-1.8h1.2c0.1,0,0.2-0.1,0.2-0.2v-0.8c0-0.1-0.1-0.2-0.2-0.2H154v-0.6h2.2c0.1,0,0.2-0.1,0.2-0.2v-0.8
				C156.4,11.1,156.3,11,156.2,11z"/>
			<path class="st0" d="M135,16.7l-0.6,0.7c0,0-0.1,0.2-0.3,0.1c0,0,0,0,0,0l0,0c-4.7-1.9-6.9-5.9-7.9-9.5c-1,3.5-3.2,7.5-7.9,9.5v0
				c0,0,0,0,0,0c-0.2,0.1-0.3-0.1-0.3-0.1l-0.6-0.7c0,0-0.1-0.2,0-0.2c0.3-0.2,0.7-0.4,1.1-0.6c6.3-4,6.5-12.7,6.5-14l0,0
				c0-0.1,0.1-0.2,0.2-0.2h2.2c0.1,0,0.1,0.1,0.2,0.2l0,0c0,1.3,0.2,10,6.5,14c0.3,0.2,0.8,0.4,1.1,0.6
				C135.1,16.6,135,16.7,135,16.7z"/>
			<path class="st0" d="M104.6,10.2h-1c-0.1,0-0.2,0.1-0.2,0.2v5.2c0,0.5-0.1,0.7-0.9,0.7H102c-0.1,0-0.1,0.1-0.1,0.1v0.8
				c0,0.2,0.1,0.3,0.3,0.3h0.8c1.9,0,2.5-0.3,2.5-1.9l0-4.5C105.6,10.7,105.1,10.2,104.6,10.2z M113.1,11.6
				c-1.1-0.5-2.3-1.3-3.3-2.2h3.3c0.1,0,0.2-0.1,0.2-0.2v-1c0-0.1-0.1-0.2-0.2-0.2H102c0.4-0.5,0.8-1,1.1-1.5h7.9
				c0.1,0,0.2-0.1,0.2-0.2v-1c0-0.1-0.1-0.2-0.2-0.2h-7.1c0.3-0.5,0.6-1.1,0.8-1.5h7.8c0.1,0,0.2-0.1,0.2-0.2v-1
				c0-0.1-0.1-0.2-0.2-0.2h-7.2c0.1-0.2,0.1-0.4,0.2-0.5c0.1-0.2,0.1-0.3-0.1-0.4c-0.4-0.1-1.3-0.3-1.5-0.3
				c-0.3-0.1-0.4,0.3-0.4,0.3l-0.1,0.5c0,0.1-0.1,0.3-0.2,0.5h-6.4c-0.1,0-0.2,0.1-0.2,0.2v1c0,0.1,0.1,0.2,0.2,0.2h5.9
				c-0.2,0.5-0.5,1-0.7,1.5h-3.7c-0.1,0-0.2,0.1-0.2,0.2v1c0,0.1,0.1,0.2,0.2,0.2h3c-0.3,0.5-0.7,1-1,1.5h-4c-0.1,0-0.2,0.1-0.2,0.2
				v1c0,0.1,0.1,0.2,0.2,0.2h2.9C98,10.3,97,11,95.9,11.6c-0.3,0.1-0.1,0.3-0.1,0.3l0.2,0.5c0,0,0.1,0.2,0.3,0.1
				c0.7-0.2,1.3-0.6,1.9-1c1.4,0.4,3.1,1.1,3.5,1.3c0.1,0.1,0.2,0,0.2,0l0.5-1.1c0,0,0.1-0.1-0.1-0.2c-0.6-0.3-1.9-0.6-3-0.9
				c0.5-0.4,1-0.9,1.4-1.3h7c0.4,0.4,0.9,0.9,1.4,1.2c-0.8,0.4-2.2,0.7-2.9,0.8c-0.1,0-0.1,0.1-0.1,0.2c0.1,0.4,0.2,0.8,0.3,1.2
				c0,0.1,0.1,0.1,0.2,0.1c0.5-0.1,2.6-0.9,3.6-1.5c0.8,0.5,1.6,0.9,2.4,1.2c0.3,0.1,0.3-0.1,0.3-0.1l0.2-0.5
				C113.3,11.9,113.4,11.7,113.1,11.6z M102.7,14.5c-0.1-0.4-0.1-0.3-0.1-0.7c0-0.1-0.1-0.1-0.2-0.1c-1.8,0.9-3.5,1.4-5.5,1.9
				c-0.1,0-0.2,0.1-0.1,0.2c0.2,0.3,0.4,0.9,0.5,1.2c0,0.1,0.2,0.2,0.3,0.1c1.6-0.5,3.5-1.5,5-2.4C102.7,14.7,102.7,14.6,102.7,14.5
				z M111.9,15.7c-1.6-0.8-3.5-1.4-5.1-1.8c-0.2-0.1-0.2,0.1-0.2,0.1l-0.3,0.7c0,0-0.1,0.1,0.1,0.2c1.6,0.7,3,1.3,4.5,2.2
				c0.2,0.1,0.3,0.1,0.4-0.1c0.3-0.4,0.4-0.6,0.7-1C112,15.8,112,15.7,111.9,15.7z"/>
		</g>
	</g>
	<g>
		<linearGradient id="SVGID_1_" gradientUnits="userSpaceOnUse" x1="45.5572" y1="-1.2624" x2="25.405" y2="23.6235">
			<stop  offset="0" style="stop-color:#6FB92C"/>
			<stop  offset="0.3609" style="stop-color:#42A835"/>
			<stop  offset="0.7873" style="stop-color:#12963F"/>
			<stop  offset="1" style="stop-color:#008F43"/>
		</linearGradient>
		<path class="st1" d="M32,9.5C39.9,6,47.8,5,53.9,6.2c-0.7-0.3-1.4-0.8-1.8-1.6c-1.1-2-3.3-3.2-5.9-3c-1,0.1-2.1-0.1-2.7-0.6
			c-1-0.6-2-1-3.3-1c-1.3,0-2.4,0.4-3.3,1c-0.7,0.5-1.7,0.7-2.7,0.6c-2.5-0.3-4.7,0.9-5.9,3c-0.5,0.9-1.4,1.5-2.2,1.8
			c-2,0.7-3.7,2.5-3.9,4.9c-0.1,1.1-0.8,2-1.3,2.5c-1.4,1.4-1.9,2.9-1.9,4.5c0,0,0,0.1,0,0.1C22.3,15,26.8,11.9,32,9.5z"/>
		<linearGradient id="SVGID_2_" gradientUnits="userSpaceOnUse" x1="51.8729" y1="-2.0282" x2="27.8428" y2="27.6465">
			<stop  offset="0" style="stop-color:#44AF35"/>
			<stop  offset="0.2176" style="stop-color:#2DA43A"/>
			<stop  offset="0.511" style="stop-color:#14983F"/>
			<stop  offset="0.78" style="stop-color:#059142"/>
			<stop  offset="1" style="stop-color:#008F43"/>
		</linearGradient>
		<path class="st2" d="M38.9,14.1c6.7-3,13.5-4.2,19.1-3.7c-0.5-2-2-3.4-3.7-4l0,0c-0.1,0-0.3-0.1-0.4-0.2C47.8,5,39.9,6,32,9.5
			c-5.3,2.4-9.7,5.5-13,8.9c0,3.2,2.4,5.8,5.5,6.2C27.9,20.6,32.9,16.8,38.9,14.1z"/>
		<g>
			<path class="st3" d="M59.5,13.8c-0.5-0.5-1.2-1.4-1.3-2.5c0-0.3-0.1-0.6-0.1-0.9c-5.6-0.5-12.4,0.7-19.1,3.7
				c-6.1,2.7-11.1,6.5-14.5,10.5c0.3,0,0.6,0.1,0.9,0.1h9.1c0.9,0,1.6,0.7,1.6,1.6v0.4c0,1.5-1.4,1.7-1.4,1.7l-7.4,1.3
				c-0.3,0-0.5,0.2-0.5,0.5V31h27v-0.9c0-0.3-0.2-0.4-0.5-0.5l-7.4-1.3c0,0-1.4-0.2-1.4-1.7v-0.4c0-0.9,0.7-1.6,1.6-1.6h9.1
				c3.5,0,6.4-2.8,6.4-6.4C61.4,16.7,60.8,15.2,59.5,13.8z"/>
		</g>
	</g>
</g>
</svg>
